<svg xmlns="http://www.w3.org/2000/svg" width="430" height="430" style="width:100%;height:100%;transform:translate3d(0,0,0);content-visibility:visible" viewBox="0 0 430 430"><defs><clipPath id="j"><path d="M0 0h430v430H0z"/></clipPath><clipPath id="q"><path d="M0 0h500v500H0z"/></clipPath><clipPath id="o"><path d="M0 0h500v500H0z"/></clipPath><clipPath id="m"><path d="M0 0h430v430H0z"/></clipPath><clipPath id="k"><path d="M0 0h430v430H0z"/></clipPath><path id="e" fill="#3A3347" d="M0-9.625c5.312 0 9.625 4.313 9.625 9.625S5.312 9.625 0 9.625-9.625 5.312-9.625 0-5.312-9.625 0-9.625z" style="display:block" transform="matrix(4 0 0 4 265.5 390)"/><path id="g" style="display:none"/><path id="i" style="display:none"/><path id="a" style="display:none"/><path id="c" style="display:none"/><mask id="s" mask-type="alpha"><use xmlns:ns1="http://www.w3.org/1999/xlink" ns1:href="#a"/></mask><mask id="r" mask-type="alpha"><g filter="url(#b)"><path fill="#fff" d="M0 0h500v500H0z" opacity="0"/><use xmlns:ns2="http://www.w3.org/1999/xlink" ns2:href="#c"/></g></mask><mask id="p" mask-type="alpha"><g filter="url(#d)"><path fill="#fff" d="M0 0h500v500H0z" opacity="0"/><use xmlns:ns3="http://www.w3.org/1999/xlink" ns3:href="#e"/></g></mask><mask id="n" mask-type="alpha"><g filter="url(#f)"><path fill="#fff" d="M0 0h430v430H0z" opacity="0"/><use xmlns:ns4="http://www.w3.org/1999/xlink" ns4:href="#g"/></g></mask><mask id="l" mask-type="alpha"><g filter="url(#h)"><path fill="#fff" d="M0 0h430v430H0z" opacity="0"/><use xmlns:ns5="http://www.w3.org/1999/xlink" ns5:href="#i"/></g></mask><filter id="b" width="100%" height="100%" x="0%" y="0%" filterUnits="objectBoundingBox"><feComponentTransfer in="SourceGraphic"><feFuncA tableValues="1.0 0.0" type="table"/></feComponentTransfer></filter><filter id="d" width="100%" height="100%" x="0%" y="0%" filterUnits="objectBoundingBox"><feComponentTransfer in="SourceGraphic"><feFuncA tableValues="1.0 0.0" type="table"/></feComponentTransfer></filter><filter id="f" width="100%" height="100%" x="0%" y="0%" filterUnits="objectBoundingBox"><feComponentTransfer in="SourceGraphic"><feFuncA tableValues="1.0 0.0" type="table"/></feComponentTransfer></filter><filter id="h" width="100%" height="100%" x="0%" y="0%" filterUnits="objectBoundingBox"><feComponentTransfer in="SourceGraphic"><feFuncA tableValues="1.0 0.0" type="table"/></feComponentTransfer></filter></defs><g clip-path="url(#j)"><g clip-path="url(#k)" style="display:none"><path class="primary" style="display:none"/><g mask="url(#l)" style="display:none"><path class="primary"/><path class="primary" style="mix-blend-mode:multiply"/></g><g style="display:none"><path class="secondary"/><path class="secondary"/><path class="secondary" style="mix-blend-mode:multiply"/></g></g><g clip-path="url(#m)" style="display:none"><path class="primary" style="display:none"/><g mask="url(#n)" style="display:none"><path class="primary"/><path class="primary" style="mix-blend-mode:multiply"/></g><g style="display:none"><path class="secondary"/><path class="secondary"/><path class="secondary" style="mix-blend-mode:multiply"/></g></g><g clip-path="url(#o)" style="display:block" transform="translate(-35 -35)"><path fill="#3A3347" d="M0-9.625c5.312 0 9.625 4.313 9.625 9.625S5.312 9.625 0 9.625-9.625 5.312-9.625 0-5.312-9.625 0-9.625z" class="primary" style="display:block" transform="matrix(4 0 0 4 250.5 386.5)"/><g fill="#3A3347" mask="url(#p)" style="display:block"><path d="M250.5 348c21.248 0 38.5 17.252 38.5 38.5S271.748 425 250.5 425 212 407.748 212 386.5s17.252-38.5 38.5-38.5z" class="primary"/><path fill-opacity=".5" d="M0-9.625c5.312 0 9.625 4.313 9.625 9.625S5.312 9.625 0 9.625-9.625 5.312-9.625 0-5.312-9.625 0-9.625z" class="primary" style="mix-blend-mode:multiply" transform="matrix(4 0 0 4 250.5 386.5)"/></g><g fill="#FFC738" style="display:block"><path d="M347.966 202.85c.001-47.873-43.06-86.742-96.096-86.742s-95.908 39.544-95.674 88.248l.426 89c.001.415-11.267 19.047-25.146 41.58a13225.39 13225.39 0 0 0-22.255 36.268c-1.221 1.997.208 4.56 2.549 4.56l94.774-.009 88.332-.009c44.182-.004 81.676-.058 94.876-.079 2.281-.004 3.723-2.445 2.621-4.443-3.846-6.97-11.818-21.428-21.007-38.1-12.916-23.431-23.402-42.697-23.402-42.994l.002-87.28z" class="secondary"/><path d="M267.288 119.108V89.89c0-6.176-6.945-11.19-15.498-11.19-8.553 0-15.498 4.981-15.498 11.116v29.292" class="secondary"/><path fill-opacity=".5" d="M79.268-137.34v23.01c-49.98 3.35-89.37 44.77-89.15 91.45.06 10.83-.18 15.37-.18 43.03 0 14.47 25.11 20.06 53.75 28.53 9.74 2.87 7.73 17.2-2.43 17.22-11.59.04-25.06.1-35.21.14-9.59.05-18.46 5.09-23.41 13.32-4.5 7.49-10.57 17.51-17.24 28.34-13.84 22.48-25.04 40.73-25.04 40.83H-76.26c-2.343 0-3.785-2.558-2.564-4.557 4.153-6.797 12.567-20.493 22.282-36.273 13.88-22.53 25.15-41.16 25.15-41.58 0-.41-.2-40.29-.43-89-.21-43.83 34.49-80.23 80.1-87.08v-27.46c0-6.13 6.94-11.11 15.49-11.11 8.56 0 15.5 5.01 15.5 11.19z" class="secondary" opacity=".5" style="mix-blend-mode:multiply" transform="translate(188.018 227.232)"/></g></g><g clip-path="url(#q)" style="display:none"><path class="primary" style="display:none"/><g mask="url(#r)" style="display:none"><path class="primary"/><path class="primary" style="mix-blend-mode:multiply"/></g><path class="secondary" style="display:none"/><g mask="url(#s)" style="display:none"><path class="secondary"/><path class="secondary" style="mix-blend-mode:multiply"/></g></g></g></svg>