<svg width="32" height="32" viewBox="0 0 315 299" fill="none" xmlns="http://www.w3.org/2000/svg">
  <path fill-rule="evenodd" clip-rule="evenodd"
        d="M309.674 46.4882C311.398 46.4882 313.012 47.3234 314.01 48.7262C315.012 50.1291 315.27 51.9332 314.706 53.5619L284.5 140.741C279.982 153.762 267.713 162.494 253.928 162.5H91.1171L95.4891 190.12C97.1179 200.686 106.233 208.47 116.924 208.429H275.892C278.832 208.429 281.219 210.815 281.219 213.755C281.219 216.697 278.832 219.081 275.892 219.081H116.924C100.985 219.146 87.396 207.54 84.9677 191.788L59.2497 29.33C57.621 18.764 48.5054 10.98 37.8146 11.0216H5.32609C2.38366 11.0216 0 8.6379 0 5.69548C0 2.75305 2.38366 0.369391 5.32609 0.369391H37.8146C53.7542 0.306976 67.3429 11.9102 69.7711 27.6626L72.7492 46.4882H309.674ZM265.121 265.337C266.756 281.841 254.701 296.547 238.194 298.182C221.689 299.817 206.986 287.759 205.351 271.254C203.717 254.75 215.772 240.044 232.276 238.409C248.78 236.774 263.486 248.832 265.121 265.337ZM154.061 268.293C154.061 251.709 140.615 238.263 124.031 238.263C107.443 238.263 93.9971 251.706 93.9971 268.293C93.9971 284.881 107.443 298.327 124.031 298.327C140.606 298.309 154.043 284.872 154.061 268.293Z"
        fill="url(#paint0_linear_46_15582)"/>
  <defs>
    <linearGradient id="paint0_linear_46_15582" x1="157.5" y1="0.369141" x2="157.498" y2="298.33"
                    gradientUnits="userSpaceOnUse">
      <stop stop-color="#FD6700"/>
      <stop offset="1" stop-color="#FFCE00"/>
    </linearGradient>
  </defs>
</svg>
