<svg width="25" height="16" viewBox="0 0 25 16" fill="none" xmlns="http://www.w3.org/2000/svg">
<g clip-path="url(#clip0_10124_42906)">
<path d="M16.3342 0.603027L14.8217 2.11553L18.8842 6.17803L20.3967 4.66553C21.1779 3.88428 21.1779 2.61865 20.3967 1.8374L19.1654 0.603027C18.3842 -0.178223 17.1185 -0.178223 16.3373 0.603027H16.3342ZM14.1154 2.82178L6.83103 10.1093C6.50603 10.4343 6.26853 10.8374 6.13728 11.278L5.03103 15.0374C4.95291 15.303 5.02478 15.5874 5.21853 15.7812C5.41228 15.9749 5.69666 16.0468 5.95916 15.9718L9.71853 14.8655C10.1592 14.7343 10.5623 14.4968 10.8873 14.1718L18.1779 6.88428L14.1154 2.82178Z" fill="#8F93A1"/>
</g>
<defs>
<clipPath id="clip0_10124_42906">
<rect width="25" height="16" fill="white"/>
</clipPath>
</defs>
</svg>
